<svg width="38" height="32" viewBox="0 0 38 32" fill="none" xmlns="http://www.w3.org/2000/svg">
<path d="M38 8.16196H32.0459V5.59829H15.8262L13.9034 0.470947H0V31.8759H32.0459V31.3164L38 8.16196ZM36.3464 9.44379L32.0459 26.1692V9.44379H36.3464ZM1.28184 1.75278H13.0151L14.9379 6.88012H30.764V8.16196V30.5941H1.28184V1.75278Z" fill="#DEC377"/>
<path d="M3.84546 28.0303H19.2275V18.4165H3.84546V28.0303ZM5.12729 19.6983H17.9456V26.7484H5.12729V19.6983Z" fill="#DEC377"/>
<path d="M12.8184 24.1851H7.0501C6.69567 24.1851 6.40918 24.4715 6.40918 24.826C6.40918 25.1804 6.69567 25.4669 7.0501 25.4669H12.8184C13.1728 25.4669 13.4593 25.1804 13.4593 24.826C13.4593 24.4715 13.1728 24.1851 12.8184 24.1851Z" fill="#DEC377"/>
<path d="M7.0501 22.2623H9.61377C9.96819 22.2623 10.2547 21.9758 10.2547 21.6214C10.2547 21.267 9.96819 20.9805 9.61377 20.9805H7.0501C6.69567 20.9805 6.40918 21.267 6.40918 21.6214C6.40918 21.9758 6.69567 22.2623 7.0501 22.2623Z" fill="#DEC377"/>
<path d="M16.0229 20.9805H14.741C14.3866 20.9805 14.1001 21.267 14.1001 21.6214C14.1001 21.9758 14.3866 22.2623 14.741 22.2623H16.0229C16.3773 22.2623 16.6638 21.9758 16.6638 21.6214C16.6638 21.267 16.3773 20.9805 16.0229 20.9805Z" fill="#DEC377"/>
<path d="M14.9271 24.3707C14.8111 24.4919 14.7412 24.6521 14.7412 24.8258C14.7412 24.9988 14.8111 25.1591 14.9271 25.2744C15.0482 25.3956 15.2084 25.4667 15.3821 25.4667C15.5488 25.4667 15.7154 25.3962 15.8372 25.2808C15.9525 25.1591 16.023 24.9924 16.023 24.8258C16.023 24.6591 15.9525 24.4919 15.8372 24.3707C15.6 24.1336 15.1642 24.1336 14.9271 24.3707Z" fill="#DEC377"/>
<path d="M12.1775 22.2621C12.3442 22.2621 12.5108 22.1916 12.6326 22.0762C12.748 21.9545 12.8185 21.7878 12.8185 21.6212C12.8185 21.4475 12.748 21.2873 12.6326 21.1661C12.3955 20.929 11.9526 20.929 11.7225 21.1661C11.6065 21.2873 11.5366 21.4545 11.5366 21.6212C11.5366 21.7878 11.6065 21.9545 11.7225 22.0762C11.8436 22.1916 12.0109 22.2621 12.1775 22.2621Z" fill="#DEC377"/>
</svg>
