<svg width="55" height="58" viewBox="0 0 55 58" fill="none" xmlns="http://www.w3.org/2000/svg">
<path d="M29.8452 48.9373H1.96811V16.6806L16.3681 2.37292H43.045V18.2498C43.045 18.6191 43.322 18.9883 43.7835 18.9883C44.245 18.9883 44.522 18.7114 44.522 18.2498V1.63446C44.522 1.26523 44.245 0.895996 43.7835 0.895996H16.0912C15.9066 0.895996 15.722 0.988304 15.6297 1.08061L0.768111 15.9422C0.675804 16.0345 0.583496 16.2191 0.583496 16.4037V49.5835C0.583496 49.9527 0.860419 50.322 1.32196 50.322H29.8452C30.2144 50.322 30.5837 50.045 30.5837 49.5835C30.5837 49.122 30.2144 48.9373 29.8452 48.9373Z" fill="black" fill-opacity="0.8"/>
<path d="M16.7372 16.4038V5.32684C16.7372 4.95761 16.4602 4.58838 15.9987 4.58838C15.5372 4.58838 15.2602 4.8653 15.2602 5.32684V15.7576H5.0141C4.64487 15.7576 4.27563 16.0345 4.27563 16.4961C4.27563 16.9576 4.55256 17.2345 5.0141 17.2345H16.091C16.4602 17.1422 16.7372 16.773 16.7372 16.4038Z" fill="black" fill-opacity="0.8"/>
<path d="M37.3221 22.9692H6.86053C6.4913 22.9692 6.12207 23.2462 6.12207 23.7077C6.12207 24.1692 6.39899 24.4462 6.86053 24.4462H37.3221C37.6913 24.4462 38.0605 24.1692 38.0605 23.7077C38.0605 23.2462 37.6913 22.9692 37.3221 22.9692Z" fill="black" fill-opacity="0.8"/>
<path d="M37.968 29.6845C37.968 29.3153 37.6911 28.946 37.2295 28.946H6.768C6.39877 28.946 6.02954 29.223 6.02954 29.6845C6.02954 30.146 6.30646 30.423 6.768 30.423H37.2295C37.6911 30.423 37.968 30.0537 37.968 29.6845Z" fill="black" fill-opacity="0.8"/>
<path d="M6.86053 34.9231C6.4913 34.9231 6.12207 35.2 6.12207 35.6616C6.12207 36.1231 6.39899 36.4 6.86053 36.4H31.7836C32.1528 36.4 32.5221 36.1231 32.5221 35.6616C32.5221 35.2 32.2451 34.9231 31.7836 34.9231H6.86053Z" fill="black" fill-opacity="0.8"/>
<path d="M6.86346 40.8999C6.49423 40.8999 6.125 41.1768 6.125 41.6384C6.125 42.0999 6.40192 42.3768 6.86346 42.3768H29.4399C29.8092 42.3768 30.1784 42.0999 30.1784 41.6384C30.1784 41.1768 29.9015 40.8999 29.4399 40.8999H6.86346Z" fill="black" fill-opacity="0.8"/>
<path d="M37.9679 5.32684C37.9679 4.95761 37.691 4.58838 37.2294 4.58838H26.1525C25.7833 4.58838 25.4141 4.8653 25.4141 5.32684V18.2499C25.4141 18.6192 25.691 18.9884 26.1525 18.9884H37.2294C37.5987 18.9884 37.9679 18.7115 37.9679 18.2499V5.32684ZM36.5833 17.6038H26.891V6.0653H36.5833V17.6038Z" fill="black" fill-opacity="0.8"/>
<path fill-rule="evenodd" clip-rule="evenodd" d="M45.4762 50.1938L45.4939 50.1773C46.3511 49.3772 47.4165 48.9532 48.548 48.9532C49.7018 48.9532 50.6596 48.0163 50.6596 46.8012C50.6596 45.6629 51.1301 44.5399 51.9173 43.7527C52.7429 42.9271 52.7429 41.5532 51.9173 40.7276C51.0795 39.8897 50.6596 38.8026 50.6596 37.6791C50.6596 36.5045 49.7019 35.5271 48.5077 35.5271C47.3693 35.5271 46.2464 35.0566 45.4592 34.2695C44.6336 33.4438 43.2597 33.4438 42.434 34.2695C41.5962 35.1073 40.5091 35.5271 39.3856 35.5271C38.211 35.5271 37.2336 36.4848 37.2336 37.6791C37.2336 38.8174 36.7631 39.9404 35.9759 40.7276C35.5431 41.1604 35.3365 41.6555 35.3365 42.2402C35.3365 42.793 35.5493 43.3261 35.9759 43.7527C36.8138 44.5906 37.2336 45.6777 37.2336 46.8012C37.2336 47.9758 38.1913 48.9532 39.3856 48.9532C40.5239 48.9532 41.6469 49.4237 42.434 50.2109C42.8607 50.6375 43.3938 50.8502 43.9466 50.8502C44.4675 50.8502 45.0385 50.6315 45.4592 50.2109L45.4762 50.1938ZM52.0596 46.8012C52.0596 48.779 50.4855 50.3532 48.548 50.3532C47.7811 50.3532 47.0546 50.6357 46.4491 51.2008C45.763 51.887 44.8346 52.2502 43.9466 52.2502C43.0183 52.2502 42.1303 51.887 41.4441 51.2008C40.9194 50.6761 40.1525 50.3532 39.3856 50.3532C37.4078 50.3532 35.8336 48.7386 35.8336 46.8012C35.8336 46.0343 35.5511 45.3078 34.986 44.7427C34.2998 44.0565 33.9365 43.1685 33.9365 42.2402C33.9365 41.2714 34.2998 40.4238 34.986 39.7376C35.5107 39.2129 35.8336 38.446 35.8336 37.6791C35.8336 35.7013 37.4481 34.1271 39.3856 34.1271C40.1525 34.1271 40.879 33.8446 41.4441 33.2795C42.8164 31.9072 45.0768 31.9072 46.4491 33.2795C46.9739 33.8042 47.7408 34.1271 48.5077 34.1271C50.4855 34.1271 52.0596 35.7417 52.0596 37.6791C52.0596 38.446 52.3422 39.1725 52.9073 39.7376C54.2796 41.11 54.2796 43.3703 52.9073 44.7427C52.3825 45.2674 52.0596 46.0343 52.0596 46.8012Z" fill="black" fill-opacity="0.8"/>
<path fill-rule="evenodd" clip-rule="evenodd" d="M51.8453 50.6204L53.7847 54.7415L54.7463 56.8198L49.6528 54.9638L48.5918 57.8816L47.6809 59.9181L46.7432 57.9554L44.7251 53.6366L45.9935 53.0439L47.6062 56.4952L48.8155 53.1697L52.0515 54.3464L50.5786 51.2165L51.8453 50.6204Z" fill="black" fill-opacity="0.8"/>
<path fill-rule="evenodd" clip-rule="evenodd" d="M42.5138 53.8292L40.425 57.8766L39.3617 59.9047L37.7332 54.734L34.7726 55.6685L32.6024 56.1857L33.5886 54.2469L35.7863 50.0166L37.0287 50.662L35.2724 54.0426L38.6469 52.9775L39.6833 56.2611L41.2698 53.1871L42.5138 53.8292Z" fill="black" fill-opacity="0.8"/>
<path fill-rule="evenodd" clip-rule="evenodd" d="M49.7397 39.3806C49.5498 38.946 49.313 38.5372 49.0355 38.1605C48.4179 37.3222 47.5986 36.6429 46.6442 36.1915C45.2609 35.5373 43.6877 35.406 42.2151 35.8219C40.7426 36.2377 39.4704 37.1726 38.6338 38.4537C37.7971 39.7348 37.4525 41.2755 37.6637 42.7909C37.8748 44.3064 38.6275 45.6942 39.7825 46.6977C40.9376 47.7013 42.4169 48.2527 43.947 48.2502C45.4771 48.2476 46.9546 47.6912 48.1062 46.6838C48.9009 45.9886 49.5033 45.1113 49.8682 44.136C50.0318 43.6987 50.1476 43.2417 50.2116 42.7727C50.2117 42.7717 50.2119 42.7708 50.212 42.7699L48.7826 42.5756C48.6234 43.7464 48.0458 44.82 47.1564 45.598C46.2671 46.3759 45.1262 46.8056 43.9446 46.8076C42.763 46.8096 41.6206 46.3837 40.7287 45.6087C39.8367 44.8338 39.2555 43.7621 39.0924 42.5918C38.9294 41.4215 39.1955 40.2318 39.8416 39.2425C40.4877 38.2532 41.4701 37.5313 42.6072 37.2102C43.7443 36.889 44.9592 36.9904 46.0274 37.4956C47.0955 38.0008 47.9447 38.8756 48.4179 39.9583L49.7397 39.3806Z" fill="black" fill-opacity="0.8"/>
</svg>
