<svg width="60" height="50" viewBox="0 0 60 50" fill="none" xmlns="http://www.w3.org/2000/svg">
<path d="M51.4156 12.5962L55.2925 8.71929C56.3079 7.70391 56.3079 6.13468 55.2925 5.11929L51.4156 1.24237C51.1387 0.965445 50.8617 0.78083 50.5848 0.688522C50.3079 0.596215 49.9387 0.503906 49.6617 0.503906C49.0156 0.503906 48.3694 0.780829 47.9079 1.24237L44.031 5.11929L9.96944 38.9962C9.87713 39.0885 9.87713 39.1808 9.78483 39.2731L6.46175 49.0577C6.36944 49.3347 6.46175 49.6116 6.64637 49.7962C6.83098 49.8885 7.0156 49.9808 7.20021 49.9808C7.29252 49.9808 7.38483 49.9808 7.38483 49.9808L17.1694 46.7501C17.2617 46.7501 17.3541 46.6577 17.4464 46.5654L51.4156 12.5962ZM16.9848 45.0885L14.6771 42.7808L47.631 9.82698L49.9387 12.1347L16.9848 45.0885ZM10.7079 40.7501L13.2002 43.2424L15.6925 45.7347L13.2002 46.5654L9.87713 43.2424L10.7079 40.7501ZM48.7387 2.16544C49.2002 1.70391 49.9387 1.70391 50.4002 2.16544L54.2771 6.04237C54.7387 6.50391 54.7387 7.24237 54.2771 7.70391L50.8617 11.1193L48.0925 8.35006L45.3233 5.58083L48.7387 2.16544ZM44.4002 6.50391L46.7079 8.8116L13.6617 41.7654L11.3541 39.4577L44.4002 6.50391ZM9.4156 44.7193L11.7233 47.027L8.2156 48.227L9.4156 44.7193Z" fill="black" fill-opacity="0.8"/>
<path d="M58.6155 19.2422H48.1847C47.8155 19.2422 47.4463 19.5191 47.4463 19.9806C47.4463 20.4422 47.7232 20.7191 48.1847 20.7191H58.6155C58.9847 20.7191 59.354 20.4422 59.354 19.9806C59.354 19.5191 58.9847 19.2422 58.6155 19.2422Z" fill="black" fill-opacity="0.8"/>
<path d="M1.3847 29.8575H15.5078C15.877 29.8575 16.2462 29.5806 16.2462 29.1191C16.2462 28.6575 15.9693 28.3806 15.5078 28.3806H1.3847C1.01547 28.3806 0.64624 28.6575 0.64624 29.1191C0.64624 29.5806 1.01547 29.8575 1.3847 29.8575Z" fill="black" fill-opacity="0.8"/>
<path d="M58.6156 28.4729H38.954C38.5848 28.4729 38.2156 28.7498 38.2156 29.2114C38.2156 29.6729 38.4925 29.9498 38.954 29.9498H58.6156C58.9848 29.9498 59.354 29.6729 59.354 29.2114C59.354 28.7498 58.9848 28.4729 58.6156 28.4729Z" fill="black" fill-opacity="0.8"/>
<path d="M58.6156 37.7036H29.7233C29.3541 37.7036 28.9849 37.9805 28.9849 38.4421C28.9849 38.9036 29.2618 39.1805 29.7233 39.1805H58.6156C58.9849 39.1805 59.3541 38.9036 59.3541 38.4421C59.3541 37.9805 58.9849 37.7036 58.6156 37.7036Z" fill="black" fill-opacity="0.8"/>
<path d="M17.9999 2.16516H43.1999C43.5692 2.16516 43.9384 1.88823 43.9384 1.42669C43.9384 0.965155 43.6615 0.688232 43.1999 0.688232H17.9999C17.6307 0.688232 17.2615 0.965155 17.2615 1.42669C17.2615 1.88823 17.6307 2.16516 17.9999 2.16516Z" fill="black" fill-opacity="0.8"/>
<path d="M11.3847 11.3964H30.7693C31.1385 11.3964 31.5078 11.1194 31.5078 10.6579C31.5078 10.1964 31.2309 9.91943 30.7693 9.91943H11.3847C11.0155 9.91943 10.6462 10.1964 10.6462 10.6579C10.6462 11.1194 11.0155 11.3964 11.3847 11.3964Z" fill="black" fill-opacity="0.8"/>
<path d="M1.3847 20.6268H24.7386C25.1078 20.6268 25.477 20.3499 25.477 19.8884C25.477 19.4268 25.2001 19.1499 24.7386 19.1499H1.3847C1.01547 19.1499 0.64624 19.4268 0.64624 19.8884C0.64624 20.3499 1.01547 20.6268 1.3847 20.6268Z" fill="black" fill-opacity="0.8"/>
<path d="M42.9231 46.9346H20.4924C20.1231 46.9346 19.7539 47.2115 19.7539 47.673C19.7539 48.1346 20.0308 48.4115 20.4924 48.4115H42.9231C43.2924 48.4115 43.6616 48.1346 43.6616 47.673C43.6616 47.2115 43.2924 46.9346 42.9231 46.9346Z" fill="black" fill-opacity="0.8"/>
</svg>
