<svg width="60" height="54" viewBox="0 0 60 54" fill="none" xmlns="http://www.w3.org/2000/svg">
<path d="M37.6269 44.0962C42.0577 44.0962 46.3039 42.8039 49.9962 40.3115L58.5808 44.0962C58.6731 44.0962 58.7654 44.1885 58.8577 44.1885C59.0423 44.1885 59.2269 44.0962 59.3192 44.0038C59.5039 43.8192 59.5962 43.5423 59.5038 43.2654L56.4577 33.3885C58.4885 29.9731 59.5038 26.1885 59.5038 22.2192C59.5038 10.1269 49.6269 0.25 37.5346 0.25C25.4423 0.25 15.75 10.0346 15.75 22.1269C15.75 34.2192 25.5346 44.0962 37.6269 44.0962ZM37.6269 1.63462C48.9808 1.63462 58.2115 10.8654 58.2115 22.2192C58.2115 26.0038 57.1962 29.6962 55.1654 32.9269C55.0731 33.1115 55.0731 33.2962 55.0731 33.4808L57.75 42.1577L50.1808 38.8346C49.9962 38.7423 49.7192 38.7423 49.5346 38.9269C46.0269 41.4192 41.9654 42.7115 37.6269 42.7115C26.2731 42.7115 17.0423 33.4808 17.0423 22.1269C17.0423 10.7731 26.2731 1.63462 37.6269 1.63462Z" fill="black" fill-opacity="0.8"/>
<path d="M27.231 17.7766C24.831 17.7766 22.8926 19.7151 22.8926 22.2074C22.8926 24.6997 24.831 26.6381 27.231 26.6381C29.631 26.6381 31.6618 24.6997 31.6618 22.2074C31.6618 19.7151 29.631 17.7766 27.231 17.7766ZM27.231 25.1612C25.5695 25.1612 24.2772 23.7766 24.2772 22.1151C24.2772 20.4535 25.6618 19.0689 27.231 19.0689C28.8003 19.0689 30.2772 20.4535 30.2772 22.1151C30.2772 23.7766 28.8926 25.1612 27.231 25.1612Z" fill="black" fill-opacity="0.8"/>
<path d="M33.9695 22.1153C33.9695 24.5153 35.9079 26.5461 38.4003 26.5461C40.8003 26.5461 42.7387 24.6076 42.7387 22.1153C42.7387 19.623 40.8003 17.6846 38.4003 17.6846C35.9079 17.7769 33.9695 19.7153 33.9695 22.1153ZM38.3079 19.1615C39.9695 19.1615 41.2618 20.5461 41.2618 22.2076C41.2618 23.8692 39.8772 25.2538 38.3079 25.2538C36.7387 25.2538 35.2618 23.8692 35.2618 22.2076C35.2618 20.5461 36.6464 19.1615 38.3079 19.1615Z" fill="black" fill-opacity="0.8"/>
<path d="M49.3849 26.5461C51.7849 26.5461 53.8156 24.6076 53.8156 22.1153C53.8156 19.623 51.8772 17.6846 49.3849 17.6846C46.8926 17.6846 44.9541 19.623 44.9541 22.1153C44.9541 24.6076 46.9849 26.5461 49.3849 26.5461ZM49.3849 19.1615C51.0464 19.1615 52.431 20.5461 52.431 22.2076C52.431 23.8692 51.0464 25.2538 49.3849 25.2538C47.7233 25.2538 46.3387 23.8692 46.3387 22.2076C46.3387 20.5461 47.7233 19.1615 49.3849 19.1615Z" fill="black" fill-opacity="0.8"/>
<path d="M36.4616 46.4847C32.677 49.9924 27.7847 51.8385 22.6155 51.8385C18.3693 51.8385 14.2155 50.5462 10.7078 48.0539C10.5232 47.8693 10.2463 47.8693 10.0616 47.9616L2.49242 51.2847L5.16934 42.6077C5.26165 42.4231 5.16934 42.2385 5.07703 42.0539C3.13857 38.8231 2.03088 35.1308 2.03088 31.3462C2.03088 22.8539 7.1078 15.377 14.954 12.2385C15.3232 12.0539 15.5078 11.6847 15.3232 11.3154C15.1386 10.9462 14.7693 10.7616 14.4001 10.9462C6.00011 14.2693 0.553955 22.3 0.553955 31.3462C0.553955 35.3154 1.56934 39.1924 3.60011 42.5154L0.73857 52.3924C0.646263 52.6693 0.73857 52.9462 0.923186 53.1308C1.01549 53.2231 1.20011 53.3154 1.38472 53.3154C1.47703 53.3154 1.56934 53.3154 1.66165 53.2231L10.2463 49.4385C13.9386 51.9308 18.1847 53.2231 22.6155 53.2231C28.0616 53.2231 33.3232 51.1924 37.3847 47.5C37.6616 47.2231 37.6616 46.7616 37.3847 46.4847C37.2001 46.3001 36.7386 46.3001 36.4616 46.4847Z" fill="black" fill-opacity="0.8"/>
</svg>
