<svg width="51" height="50" viewBox="0 0 51 50" fill="none" xmlns="http://www.w3.org/2000/svg">
<path d="M37.2925 48.8208H1.67925V13.4434L13.9434 1.25786H36.6635V14.7799C36.6635 15.0943 36.8994 15.4088 37.2925 15.4088C37.6855 15.4088 37.9214 15.173 37.9214 14.7799V0.628931C37.9214 0.314465 37.6855 0 37.2925 0H13.7075C13.5503 0 13.3931 0.0786163 13.3145 0.157233L0.657233 12.8145C0.578616 12.8931 0.5 13.0503 0.5 13.2075V49.3711C0.5 49.6855 0.735849 50 1.12893 50H37.2925C37.6069 50 37.9214 49.7642 37.9214 49.3711C37.9214 48.978 37.6069 48.8208 37.2925 48.8208Z" fill="black" fill-opacity="0.8"/>
<path d="M14.2577 13.2074V3.77346C14.2577 3.459 14.0219 3.14453 13.6288 3.14453C13.2357 3.14453 12.9999 3.38038 12.9999 3.77346V12.6571H4.27346C3.959 12.6571 3.64453 12.893 3.64453 13.286C3.64453 13.6791 3.88038 13.915 4.27346 13.915H13.7074C14.0219 13.8364 14.2577 13.5219 14.2577 13.2074Z" fill="black" fill-opacity="0.8"/>
<path d="M31.7901 18.1604H5.8467C5.53224 18.1604 5.21777 18.3962 5.21777 18.7893C5.21777 19.1824 5.45362 19.4183 5.8467 19.4183H31.7901C32.1046 19.4183 32.419 19.1824 32.419 18.7893C32.419 18.3962 32.1046 18.1604 31.7901 18.1604Z" fill="black" fill-opacity="0.8"/>
<path d="M32.3399 23.4278C32.3399 23.1133 32.1041 22.7988 31.711 22.7988H5.7676C5.45314 22.7988 5.13867 23.0347 5.13867 23.4278C5.13867 23.8208 5.37452 24.0567 5.7676 24.0567H31.711C32.1041 24.0567 32.3399 23.7422 32.3399 23.4278Z" fill="black" fill-opacity="0.8"/>
<path d="M5.8467 27.5942C5.53224 27.5942 5.21777 27.8301 5.21777 28.2232C5.21777 28.6163 5.45362 28.8521 5.8467 28.8521H27.0731C27.3876 28.8521 27.702 28.6163 27.702 28.2232C27.702 27.8301 27.4662 27.5942 27.0731 27.5942H5.8467Z" fill="black" fill-opacity="0.8"/>
<path d="M39.4936 25.2358C34.9338 25.2358 30.9244 28.066 29.3521 32.3113H7.49673C7.33949 32.3113 7.18226 32.3899 7.10364 32.4685L3.95899 35.6132C3.88037 35.6918 3.80176 35.849 3.80176 36.0063C3.80176 36.1635 3.80176 36.2421 3.88037 36.3994L7.02503 39.544C7.10364 39.6226 7.26088 39.7013 7.41811 39.7013H10.6414C10.7986 39.7013 10.9558 39.6226 11.0345 39.544L12.8426 37.7358L14.808 39.544C14.8867 39.6226 15.0439 39.7013 15.2011 39.7013H15.9873C16.1445 39.7013 16.3018 39.6226 16.3804 39.544L18.1885 37.7358L19.9967 39.544C20.0753 39.6226 20.2326 39.7013 20.3898 39.7013H21.176C21.3332 39.7013 21.4904 39.6226 21.569 39.544L23.3772 37.7358L25.1854 39.544C25.264 39.6226 25.4213 39.7013 25.5785 39.7013H29.1162C30.6885 43.9465 34.698 46.7767 39.2577 46.7767C45.2326 46.7767 50.1068 41.9025 50.1068 35.9277C50.1068 29.9528 45.4684 25.2358 39.4936 25.2358ZM39.4936 45.6761C35.2483 45.6761 31.6319 43.0031 30.2955 38.9937C30.2168 38.7579 29.981 38.6006 29.7451 38.6006H26.0502L24.0062 36.5566C23.9275 36.478 23.7703 36.3994 23.6131 36.3994C23.4558 36.3994 23.2986 36.478 23.22 36.5566L21.0974 38.522H20.7829L18.7389 36.478C18.503 36.2421 18.1099 36.2421 17.8741 36.478L15.8301 38.522H15.5156L13.4716 36.478C13.2357 36.2421 12.8426 36.2421 12.6068 36.478L10.5628 38.522H7.73257L5.13824 35.9277L7.73257 33.3333H29.8238C30.0596 33.3333 30.2955 33.1761 30.3741 32.9402C31.7106 29.0094 35.3269 26.3365 39.4936 26.3365C44.8395 26.3365 49.1634 30.6604 49.1634 36.0063C49.1634 41.3522 44.8395 45.6761 39.4936 45.6761Z" fill="black" fill-opacity="0.8"/>
<path d="M43.4242 31.9182C41.1444 31.9182 39.3362 33.7264 39.3362 36.0063C39.3362 38.2861 41.1444 40.0943 43.4242 40.0943C45.7041 40.0943 47.5123 38.2861 47.5123 36.0063C47.5123 33.7264 45.7041 31.9182 43.4242 31.9182ZM43.4242 38.9151C41.8519 38.9151 40.5154 37.5786 40.5154 36.0063C40.5154 34.4339 41.8519 33.0975 43.4242 33.0975C44.9966 33.0975 46.333 34.4339 46.333 36.0063C46.333 37.5786 45.0752 38.9151 43.4242 38.9151Z" fill="black" fill-opacity="0.8"/>
<path d="M32.3398 3.77346C32.3398 3.459 32.1039 3.14453 31.7108 3.14453H22.2769C21.9624 3.14453 21.6479 3.38038 21.6479 3.77346V14.7798C21.6479 15.0942 21.8838 15.4087 22.2769 15.4087H31.7108C32.0253 15.4087 32.3398 15.1728 32.3398 14.7798V3.77346ZM31.1605 14.2294H22.9058V4.40239H31.1605V14.2294Z" fill="black" fill-opacity="0.8"/>
</svg>
