<svg width="48" height="53" viewBox="0 0 48 53" fill="none" xmlns="http://www.w3.org/2000/svg">
<path d="M46.7154 12.8114C33.2385 12.6268 24.5616 0.626799 24.4693 0.534491C24.1923 0.165261 23.6385 0.165261 23.3616 0.534491C23.2693 0.626799 14.5923 12.6268 1.11541 12.8114C0.746179 12.8114 0.469256 13.0883 0.469256 13.4576C0.469256 13.7345 -2.11536 41.1499 23.7308 52.4114C23.8231 52.4114 23.9154 52.5037 24.0077 52.5037C24.1 52.5037 24.1923 52.5037 24.2846 52.4114C50.0385 41.2422 47.5462 13.7345 47.5462 13.4576C47.3616 13.0883 47.0846 12.8114 46.7154 12.8114ZM23.9154 50.9345C1.48464 41.0576 1.57695 18.1653 1.76156 14.196C13.7616 13.7345 21.7923 4.78064 23.9154 2.10372C26.0385 4.78064 34.0693 13.7345 46.0693 14.196C46.2539 18.1653 46.3462 41.0576 23.9154 50.9345Z" fill="black" fill-opacity="0.8"/>
<path d="M41.3614 17.796C33.7922 16.3191 27.9768 11.9806 24.3768 8.65755C24.1461 8.44454 23.9153 8.22217 23.9153 8.22217C23.9153 8.22217 23.6845 8.43893 23.4537 8.65755C19.9461 11.9806 14.0384 16.3191 6.46913 17.796C6.25504 17.8495 5.87866 17.9299 5.87866 17.9299C5.87866 17.9299 5.91528 18.3793 5.91528 18.5345C6.46913 25.7345 9.42298 38.9345 23.5461 46.2268C23.6384 46.3191 23.7307 46.3191 23.823 46.3191C23.9153 46.3191 24.0076 46.3191 24.0999 46.2268C38.3153 38.9345 41.0483 25.7169 41.7307 18.5345C41.7531 18.2985 41.7947 17.8759 41.7947 17.8759C41.7947 17.8759 41.7767 17.8699 41.3614 17.796ZM23.9153 44.8422C10.9922 38.0114 8.03836 26.0114 7.39221 19.0883C14.6845 17.5191 20.3153 13.4575 23.9153 10.1345C27.5153 13.4575 33.2384 17.4268 40.4384 19.0883C39.8845 26.0114 36.8384 38.0114 23.9153 44.8422Z" fill="black" fill-opacity="0.8"/>
<path d="M20.0385 21.2115V24.2577H17.9155H17.177V34.9654H17.9155H30.8385H31.577V24.9961V24.2577H28.7155V21.2115C28.7155 18.8115 26.777 16.7808 24.2847 16.7808C21.7924 16.7808 20.0385 18.8115 20.0385 21.2115ZM30.1924 33.4885H18.6539V25.6423H20.777H28.1616H30.2847V33.4885H30.1924ZM21.5155 21.2115C21.5155 19.55 22.8078 18.1654 24.4693 18.1654C26.1308 18.1654 27.5155 19.55 27.5155 21.2115V24.2577H21.5155V21.2115Z" fill="black" fill-opacity="0.8"/>
<path d="M24.3769 27.95L23.6384 27.95V31.273H24.3769H25.1153V27.95L24.3769 27.95Z" fill="black" fill-opacity="0.8"/>
</svg>
