<svg width="54" height="54" viewBox="0 0 54 54" fill="none" xmlns="http://www.w3.org/2000/svg">
<path d="M25.9998 23.1078C26.369 23.1078 26.7383 22.8309 26.7383 22.3693C26.7383 21.9078 26.4614 21.6309 25.9998 21.6309C22.5844 21.6309 19.7229 24.4001 19.7229 27.9078C19.7229 31.4155 22.4921 34.1847 25.9998 34.1847C29.5075 34.1847 32.2767 31.4155 32.2767 27.9078C32.2767 27.5386 31.9998 27.1693 31.5383 27.1693C31.0767 27.1693 30.7998 27.4462 30.7998 27.9078C30.7998 30.5847 28.5844 32.8001 25.9075 32.8001C23.2306 32.8001 21.0152 30.5847 21.0152 27.9078C21.0152 25.2309 23.3229 23.1078 25.9998 23.1078Z" fill="black" fill-opacity="0.8"/>
<path d="M45.6615 12.5848C45.3845 12.7694 45.2922 13.2309 45.4768 13.5079C48.6153 17.6617 50.1845 22.6463 50.1845 27.9079C50.1845 41.3848 39.3845 52.1848 25.9999 52.1848C12.6153 52.1848 1.72299 41.3848 1.72299 28.0002C1.72299 14.6155 12.6153 3.72324 25.9999 3.72324C31.2615 3.72324 36.2461 5.38478 40.3999 8.43093C40.6768 8.61555 41.1384 8.61555 41.323 8.24632C41.5076 7.96939 41.5076 7.50785 41.1384 7.32324C36.7076 4.00016 31.4461 2.33862 25.9076 2.33862C11.8768 2.33862 0.338379 13.8771 0.338379 28.0002C0.338379 42.1232 11.7845 53.6617 25.9999 53.6617C40.2153 53.6617 51.6615 42.2155 51.6615 28.0002C51.6615 22.4617 49.9076 17.2002 46.6768 12.7694C46.3999 12.4925 45.9384 12.4002 45.6615 12.5848Z" fill="black" fill-opacity="0.8"/>
<path d="M36.8 12.9539C36.9846 12.677 36.8923 12.2154 36.6154 12.0308C33.4769 9.90772 29.8769 8.89233 26.0923 8.89233C15.5693 8.89233 6.89233 17.477 6.89233 28.0923C6.89233 38.7077 15.4769 47.2923 26.0923 47.2923C36.7077 47.2923 45.2923 38.7077 45.2923 28.0923C45.2923 24.3077 44.1846 20.7077 42.1539 17.5693C41.9693 17.2923 41.5077 17.2 41.2308 17.3846C40.9539 17.5693 40.8616 18.0308 41.0462 18.3077C42.9846 21.1693 44 24.5846 44 28.0923C44 37.877 36.0616 45.9077 26.1846 45.9077C16.3077 45.9077 8.36926 37.9693 8.36926 28.0923C8.36926 18.2154 16.3077 10.2769 26.1846 10.2769C29.6923 10.2769 33.1077 11.2923 35.9693 13.2308C36.1539 13.4154 36.5231 13.3231 36.8 12.9539Z" fill="black" fill-opacity="0.8"/>
<path d="M32.0922 17.6617C32.2769 17.2925 32.0922 16.9232 31.8153 16.7386C30.0615 15.8155 28.0307 15.354 25.9999 15.354C18.9845 15.354 13.2615 21.0771 13.2615 28.0925C13.2615 35.1078 18.9845 40.8309 25.9999 40.8309C33.0153 40.8309 38.7384 35.1078 38.7384 28.0925C38.7384 26.0617 38.2768 24.1232 37.3538 22.2771C37.1692 21.9078 36.7999 21.8155 36.4307 22.0002C36.0615 22.1848 35.9692 22.554 36.1538 22.9232C36.9845 24.4925 37.3538 26.2463 37.3538 28.0925C37.3538 34.3694 32.2769 39.4463 25.9999 39.4463C19.723 39.4463 14.6461 34.3694 14.6461 28.0925C14.6461 21.8155 19.723 16.7386 25.9999 16.7386C27.8461 16.7386 29.5076 17.2002 31.1692 17.9386C31.4461 18.1232 31.9076 17.9386 32.0922 17.6617Z" fill="black" fill-opacity="0.8"/>
<path d="M52.7695 6.1232H48.8926L52.308 2.61551C52.5849 2.33859 52.5849 1.87705 52.308 1.60012C52.0311 1.3232 51.6618 1.41551 51.3849 1.69243L47.9695 5.10782V1.23089C47.9695 0.861662 47.6926 0.492432 47.2311 0.492432C46.7695 0.492432 46.4926 0.769355 46.4926 1.23089V6.49243L25.5387 27.5386C25.2618 27.8155 25.2618 28.277 25.5387 28.554C25.6311 28.6463 25.8157 28.7386 26.0003 28.7386C26.1849 28.7386 26.3695 28.6463 26.4618 28.554L47.508 7.50782H52.7695C53.1387 7.50782 53.508 7.23089 53.508 6.76935C53.508 6.30782 53.1387 6.1232 52.7695 6.1232Z" fill="black" fill-opacity="0.8"/>
</svg>
