<svg width="38" height="32" fill="none" xmlns="http://www.w3.org/2000/svg"><path d="M38 8.162h-5.954V5.598h-16.22L13.903.471H0v31.405h32.046v-.56L38 8.162zm-1.654 1.282l-4.3 16.725V9.444h4.3zM1.282 1.753h11.733l1.923 5.127h15.826v23.714H1.282V1.753z" fill="#DEC377"/><path d="M3.845 28.03h15.383v-9.614H3.845v9.614zm1.282-8.332h12.819v7.05H5.127v-7.05z" fill="#DEC377"/><path d="M12.818 24.185H7.05a.64.64 0 100 1.282h5.768a.64.64 0 100-1.282zM7.05 22.262h2.564a.64.64 0 100-1.282H7.05a.64.64 0 100 1.282zm8.973-1.282H14.74a.64.64 0 100 1.282h1.282a.64.64 0 100-1.282zm-1.096 3.39a.657.657 0 00-.186.456c0 .173.07.333.186.448a.64.64 0 00.91.007.674.674 0 00.186-.455.673.673 0 00-.186-.455.671.671 0 00-.91 0zm-2.749-2.108c.166 0 .333-.07.455-.186a.674.674 0 00.186-.455.66.66 0 00-.186-.455c-.237-.237-.68-.237-.91 0a.67.67 0 00-.186.455c0 .167.07.334.185.455a.672.672 0 00.456.186z" fill="#DEC377"/></svg>