<svg width="55" height="58" fill="none" xmlns="http://www.w3.org/2000/svg"><path d="M29.845 48.937H1.968V16.681l14.4-14.308h26.677V18.25c0 .37.277.738.738.738.462 0 .739-.277.739-.738V1.634a.728.728 0 00-.739-.738H16.091a.705.705 0 00-.461.185L.768 15.942a.705.705 0 00-.185.462v33.18c0 .369.277.738.739.738h28.523c.37 0 .739-.277.739-.739 0-.461-.37-.646-.739-.646z" fill="#000" fill-opacity=".8"/><path d="M16.737 16.404V5.327A.728.728 0 0016 4.588c-.462 0-.739.277-.739.739v10.43H5.014a.728.728 0 00-.738.74c0 .46.277.738.738.738h11.077a.887.887 0 00.646-.831zm20.585 6.566H6.861a.728.728 0 00-.739.738c0 .461.277.738.739.738h30.461c.37 0 .738-.277.738-.738a.728.728 0 00-.738-.739zm.646 6.714a.728.728 0 00-.739-.738H6.769a.728.728 0 00-.738.738c0 .462.276.739.738.739H37.23c.461 0 .738-.37.738-.738zM6.86 34.923a.728.728 0 00-.738.739c0 .461.277.738.739.738h24.923a.728.728 0 00.738-.738c0-.462-.277-.739-.738-.739H6.86zm.003 5.977a.728.728 0 00-.738.738c0 .462.277.739.738.739H29.44c.37 0 .738-.277.738-.739 0-.461-.277-.738-.738-.738H6.863zM37.968 5.327a.728.728 0 00-.739-.739H26.153a.728.728 0 00-.739.739V18.25c0 .37.277.738.738.738H37.23c.37 0 .739-.276.739-.738V5.327zm-1.385 12.277h-9.692V6.065h9.692v11.539z" fill="#000" fill-opacity=".8"/><path fill-rule="evenodd" clip-rule="evenodd" d="M45.476 50.194l.018-.017c.857-.8 1.922-1.224 3.054-1.224 1.154 0 2.112-.937 2.112-2.152 0-1.138.47-2.261 1.257-3.048.826-.826.826-2.2 0-3.025a4.269 4.269 0 01-1.257-3.049 2.157 2.157 0 00-2.152-2.152 4.369 4.369 0 01-3.049-1.258 2.157 2.157 0 00-3.025 0 4.268 4.268 0 01-3.048 1.258 2.157 2.157 0 00-2.152 2.152c0 1.138-.47 2.261-1.258 3.049-.433.432-.64.928-.64 1.512 0 .553.213 1.086.64 1.513a4.268 4.268 0 011.258 3.048c0 1.175.957 2.152 2.152 2.152 1.138 0 2.26.47 3.048 1.258.427.427.96.64 1.513.64.52 0 1.091-.22 1.512-.64l.017-.017zM52.06 46.8c0 1.978-1.575 3.552-3.512 3.552-.767 0-1.493.283-2.099.848a3.585 3.585 0 01-2.502 1.05 3.515 3.515 0 01-2.503-1.05 2.97 2.97 0 00-2.058-.848 3.557 3.557 0 01-3.552-3.552c0-.767-.283-1.493-.848-2.058a3.515 3.515 0 01-1.05-2.503c0-.969.364-1.816 1.05-2.502a2.97 2.97 0 00.848-2.059 3.557 3.557 0 013.552-3.552c.767 0 1.493-.282 2.058-.848a3.557 3.557 0 015.005 0 2.97 2.97 0 002.059.848 3.557 3.557 0 013.552 3.552c0 .767.282 1.493.847 2.059a3.557 3.557 0 010 5.005 2.969 2.969 0 00-.847 2.058zm-.215 3.82l1.94 4.122.961 2.078-5.093-1.856-1.061 2.918-.911 2.036-.938-1.963-2.018-4.318 1.268-.593 1.613 3.451 1.21-3.325 3.235 1.176-1.472-3.13 1.266-.596zm-9.331 3.21l-2.089 4.047-1.063 2.028-1.629-5.171-2.96.934-2.17.518.986-1.94 2.197-4.23 1.243.646-1.757 3.38 3.375-1.065 1.036 3.284 1.587-3.074 1.244.642z" fill="#000" fill-opacity=".8"/><path fill-rule="evenodd" clip-rule="evenodd" d="M49.74 39.38a6.331 6.331 0 00-7.525-3.558 6.333 6.333 0 107.997 6.95v-.002l-1.43-.194a4.891 4.891 0 11-.364-2.618l1.322-.577z" fill="#000" fill-opacity=".8"/></svg>