<svg width="54" height="54" fill="none" xmlns="http://www.w3.org/2000/svg"><path d="M26 23.108a.728.728 0 00.738-.739c0-.461-.277-.738-.738-.738-3.416 0-6.277 2.77-6.277 6.277 0 3.508 2.77 6.277 6.277 6.277 3.508 0 6.277-2.77 6.277-6.277a.728.728 0 00-.739-.739c-.461 0-.738.277-.738.739 0 2.677-2.216 4.892-4.893 4.892-2.676 0-4.892-2.215-4.892-4.892 0-2.677 2.308-4.8 4.985-4.8z" fill="#000" fill-opacity=".8"/><path d="M45.661 12.585c-.276.184-.369.646-.184.923 3.138 4.154 4.708 9.138 4.708 14.4 0 13.477-10.8 24.277-24.185 24.277-13.385 0-24.277-10.8-24.277-24.185C1.723 14.616 12.615 3.723 26 3.723a24.223 24.223 0 0114.4 4.708c.277.185.738.185.923-.185.185-.277.185-.738-.185-.923C36.708 4 31.446 2.34 25.908 2.34 11.877 2.339.338 13.877.338 28S11.785 53.662 26 53.662A25.607 25.607 0 0051.66 28c0-5.538-1.753-10.8-4.984-15.23-.277-.277-.739-.37-1.016-.185z" fill="#000" fill-opacity=".8"/><path d="M36.8 12.954c.185-.277.092-.739-.185-.923-3.138-2.123-6.738-3.139-10.523-3.139-10.523 0-19.2 8.585-19.2 19.2 0 10.616 8.585 19.2 19.2 19.2 10.616 0 19.2-8.584 19.2-19.2 0-3.784-1.107-7.384-3.138-10.523-.185-.277-.646-.369-.923-.184-.277.184-.37.646-.185.923C42.985 21.169 44 24.585 44 28.092c0 9.785-7.938 17.816-17.815 17.816A17.767 17.767 0 018.369 28.092a17.767 17.767 0 0117.816-17.815c3.507 0 6.923 1.015 9.784 2.954.185.184.554.092.831-.277z" fill="#000" fill-opacity=".8"/><path d="M32.092 17.662c.185-.37 0-.739-.277-.923-1.754-.924-3.784-1.385-5.815-1.385-7.015 0-12.739 5.723-12.739 12.739 0 7.015 5.724 12.738 12.739 12.738 7.015 0 12.738-5.723 12.738-12.739 0-2.03-.461-3.969-1.384-5.815-.185-.37-.554-.462-.923-.277-.37.185-.462.554-.277.923.83 1.57 1.2 3.323 1.2 5.17A11.346 11.346 0 0126 39.446a11.346 11.346 0 01-11.354-11.353A11.346 11.346 0 0126 16.739c1.846 0 3.508.461 5.17 1.2.276.184.738 0 .922-.277z" fill="#000" fill-opacity=".8"/><path d="M52.77 6.123h-3.877l3.415-3.507a.724.724 0 000-1.016c-.277-.277-.646-.184-.923.092l-3.416 3.416V1.23a.728.728 0 00-.738-.739c-.462 0-.738.277-.738.739v5.261L25.539 27.54a.724.724 0 000 1.015.706.706 0 00.461.185c.185 0 .37-.093.462-.185L47.508 7.508h5.261c.37 0 .739-.277.739-.739 0-.461-.37-.646-.739-.646z" fill="#000" fill-opacity=".8"/></svg>