<svg width="48" height="53" fill="none" xmlns="http://www.w3.org/2000/svg"><path d="M46.715 12.811C33.238 12.627 24.562.627 24.47.534a.692.692 0 00-1.107 0c-.093.093-8.77 12.093-22.247 12.277a.631.631 0 00-.646.647c0 .277-2.584 27.692 23.262 38.953.092 0 .184.093.277.093.092 0 .184 0 .277-.093 25.753-11.169 23.261-38.677 23.261-38.953-.184-.37-.461-.647-.83-.647zm-22.8 38.123C1.485 41.059 1.577 18.166 1.762 14.197c12-.461 20.03-9.415 22.153-12.092C26.038 4.78 34.07 13.734 46.07 14.196c.185 3.97.277 26.862-22.154 36.739z" fill="#000" fill-opacity=".8"/><path d="M41.361 17.796c-7.569-1.477-13.384-5.815-16.984-9.138-.23-.213-.462-.436-.462-.436l-.461.436c-3.508 3.323-9.416 7.661-16.985 9.138-.214.053-.59.134-.59.134s.036.45.036.605c.554 7.2 3.508 20.4 17.631 27.692.092.092.185.092.277.092.092 0 .185 0 .277-.092 14.215-7.292 16.948-20.51 17.63-27.692l.065-.66s-.018-.005-.434-.079zM23.915 44.842c-12.923-6.83-15.877-18.83-16.523-25.754 7.292-1.569 12.923-5.63 16.523-8.954 3.6 3.323 9.323 7.293 16.523 8.954-.553 6.923-3.6 18.923-16.523 25.754z" fill="#000" fill-opacity=".8"/><path d="M20.038 21.212v3.046h-2.861v10.707h14.4V24.258h-2.862v-3.046c0-2.4-1.938-4.431-4.43-4.431-2.493 0-4.247 2.03-4.247 4.43zm10.154 12.277H18.654v-7.847h11.631v7.847h-.093zm-8.677-12.277c0-1.662 1.293-3.047 2.954-3.047 1.662 0 3.046 1.385 3.046 3.047v3.046h-6v-3.046z" fill="#000" fill-opacity=".8"/><path d="M24.377 27.95h-.739v3.323h1.477V27.95h-.738z" fill="#000" fill-opacity=".8"/></svg>